Coordinates
version=1
nRows=8
nColumns=36
inDegrees=yes

Units are S.I. units (second, meters, Newtons, ...)
If the header above contains a line with 'inDegrees', this indicates whether rotational values are in degrees (yes) or radians (no).

endheader
time	pelvis_tilt	pelvis_list	pelvis_rotation	pelvis_tx	pelvis_ty	pelvis_tz	hip_flexion_r	hip_adduction_r	hip_rotation_r	knee_angle_r	knee_angle_r_beta	ankle_angle_r	subtalar_angle_r	mtp_angle_r	hip_flexion_l	hip_adduction_l	hip_rotation_l	knee_angle_l	knee_angle_l_beta	ankle_angle_l	subtalar_angle_l	mtp_angle_l	lumbar_extension	lumbar_bending	lumbar_rotation	arm_flex_r	arm_add_r	arm_rot_r	elbow_flex_r	pro_sup_r	arm_flex_l	arm_add_l	arm_rot_l	elbow_flex_l	pro_sup_l
      1.09000000	     -1.76518091	     -0.26261671	      3.30828585	      1.13246713	      1.04551462	     -0.22028371	     20.61845407	      1.57610503	     -7.93786550	      3.60025178	      0.06283625	      2.64901957	      0.82646851	     -7.24817331	     -6.85279253	      3.08048500	      6.90832341	      5.40256530	      0.09429255	     14.87097791	      5.71087863	     -7.24817331	     -8.05678318	     -7.24327875	     -5.81347360	    -18.19958950	     -3.21106607	    -18.75645049	     57.56407183	    104.53216372	     16.62239716	    -23.50340746	      0.84129888	     57.81761031	     99.01421853
      1.10000000	     -1.80492415	     -0.14308728	      3.20420014	      1.14370417	      1.04361554	     -0.21998831	     20.49572689	      1.55197916	     -7.46339812	      1.81151671	      0.03161693	      3.20233257	      2.33151946	     -7.25415541	     -7.34883793	      3.18760099	      6.94721082	      5.77793400	      0.10084397	     15.43088078	      5.54919183	     -7.25415541	     -7.79542969	     -7.04345017	     -5.67960724	    -18.05633393	     -3.04961154	    -18.95863812	     57.27571426	    104.55312006	     17.47482825	    -23.67346375	      1.49108917	     58.40795719	     99.00973967
      1.11000000	     -1.91596211	     -0.04600328	      3.11884724	      1.15490557	      1.04161432	     -0.21972192	     20.71547184	      1.45867690	     -7.46818257	      0.96982095	      0.01692657	      4.31445003	      4.58159363	     -7.26228267	     -7.66719188	      3.26905226	      6.95824658	      6.32472233	      0.11038723	     15.89205782	      5.44952477	     -7.26228267	     -7.46999034	     -6.81905067	     -5.48718885	    -17.98451550	     -2.88541769	    -19.21719139	     57.02789516	    104.58982353	     18.39597166	    -23.82749877	      2.37085356	     58.88760022	     98.92068820
      1.12000000	     -1.94913893	      0.04378450	      2.87970710	      1.16625197	      1.03976840	     -0.21920130	     20.91751878	      1.44969494	     -7.02012228	      0.63497762	      0.01108245	      4.97001351	      5.78453580	     -7.26537371	     -8.03488893	      3.37485103	      6.92084774	      6.98342649	      0.12188379	     16.43981363	      5.10670833	     -7.26537371	     -7.18963572	     -6.58358905	     -5.25615114	    -17.81926529	     -2.74194786	    -19.33560810	     56.71771981	    104.58464464	     19.01787050	    -23.90972810	      2.73814676	     59.46608560	     98.91323938
      1.13000000	     -1.84902529	     -0.00002683	      2.84095799	      1.17789496	      1.03829016	     -0.21890433	     20.91433123	      1.48794816	     -7.14899362	      0.60616198	      0.01057952	      5.62685642	      7.67185439	     -7.27402126	     -8.48012115	      3.28407647	      6.98802238	      7.75257382	      0.13530794	     16.80022787	      5.08686704	     -7.27402126	     -7.07284734	     -6.16012432	     -5.12897293	    -17.68100834	     -2.57828343	    -19.67910676	     56.39573602	    104.60446097	     19.72105161	    -24.05896782	      3.62525313	     59.91706528	     98.71580856
      1.14000000	     -1.72923476	     -0.12857410	      2.78436671	      1.18983126	      1.03702367	     -0.21843678	     20.79087770	      1.68348366	     -6.56934420	      0.77591117	      0.01354220	      5.46020645	      7.98057594	     -7.27455608	     -8.99259503	      3.09203369	      7.17920996	      8.42383485	      0.14702365	     16.81383511	      5.00911429	     -7.27455608	     -6.93171726	     -5.64764024	     -5.13078044	    -17.59086635	     -2.48026647	    -19.68699643	     56.20570926	    104.59389009	     20.10966795	    -24.02073386	      3.69232281	     60.28111162	     98.73704496
      1.15000000	     -1.40220994	     -0.30078334	      2.76086663	      1.20185680	      1.03610271	     -0.21802920	     20.27636584	      1.96218260	     -5.54810188	      0.95032394	      0.01658628	      4.79102928	      7.48073698	     -7.28222492	     -9.51675406	      2.84714334	      6.93284551	      9.54135076	      0.16652799	     17.42847435	      4.81392135	     -7.28222492	     -7.07714640	     -5.10210733	     -5.03932400	    -17.30219822	     -2.33846688	    -20.18955749	     55.60227791	    104.56800536	     20.54618928	    -24.13553233	      4.40037110	     61.15609542	     98.55732328
      1.16000000	     -1.10358147	     -0.52022956	      2.73734101	      1.21419266	      1.03535535	     -0.21748745	     19.89154306	      2.28530667	     -5.12498374	      1.60846672	      0.02807304	      4.24346185	      7.36798361	     -7.28377680	    -10.06675832	      2.54886639	      6.88827646	     10.55008266	      0.18413368	     17.51125181	      4.53601535	     -7.28377680	     -7.13696213	     -4.51039986	     -4.97766851	    -17.16767411	     -2.24651930	    -20.33158758	     55.21795904	    104.54043295	     20.82929173	    -24.04421516	      4.56436903	     61.69572720	     98.55918136
